<svg fill="#000000" width="60px" height="60px" viewBox="0 0 24 24" data-name="Flat Line" xmlns="http://www.w3.org/2000/svg" class="icon flat-line float-left">
  <path d="M10.25,4.19,2.63,18a2,2,0,0,0,1.75,3H19.62a2,2,0,0,0,1.75-3L13.75,4.19A2,2,0,0,0,10.25,4.19Z" style="fill: rgb(252, 200, 0); stroke-width: 2;">
  </path>
  <line x1="12.05" y1="17" x2="11.95" y2="17" style="fill: none; stroke: rgb(0, 0, 0); stroke-linecap: round; stroke-linejoin: round; stroke-width: 2.5;">
  </line>
  <path d="M12,9v4M10.25,4.19,2.63,18a2,2,0,0,0,1.75,3H19.62a2,2,0,0,0,1.75-3L13.75,4.19A2,2,0,0,0,10.25,4.19Z" style="fill: none; stroke: rgb(0, 0, 0); stroke-linecap: round; stroke-linejoin: round; stroke-width: 2;">
  </path>
</svg>
